<svg xmlns="http://www.w3.org/2000/svg" viewBox="0 0 128 128">
  <defs>
    <radialGradient id="bg" cx="30%" cy="20%" r="85%">
      <stop offset="0%" stop-color="#a78bfa"/>
      <stop offset="55%" stop-color="#4c1d95"/>
      <stop offset="100%" stop-color="#0b1020"/>
    </radialGradient>
  </defs>
  <circle cx="64" cy="64" r="60" fill="url(#bg)"/>
  <circle cx="64" cy="64" r="60" fill="none" stroke="rgba(255,255,255,0.16)" stroke-width="2"/>

  <g>
    <path d="M32 60c0-22 15-38 32-38s32 16 32 38v22c0 14-11 26-32 26S32 96 32 82V60z" fill="#0b1220" stroke="rgba(255,255,255,0.22)" stroke-width="3"/>
    <path d="M36 54c8-12 44-12 56 0" fill="none" stroke="rgba(255,255,255,0.12)" stroke-width="10" stroke-linecap="round"/>
    <rect x="34" y="52" width="60" height="24" rx="12" fill="#111827" stroke="rgba(255,255,255,0.18)" stroke-width="2"/>
    <circle cx="52" cy="64" r="5" fill="#e5e7eb"/>
    <circle cx="76" cy="64" r="5" fill="#e5e7eb"/>
    <path d="M46 86c10 10 26 10 36 0" fill="none" stroke="rgba(255,255,255,0.20)" stroke-width="4" stroke-linecap="round"/>
    <path d="M22 52c14-10 18-10 28-10" fill="none" stroke="rgba(167,139,250,0.45)" stroke-width="6" stroke-linecap="round"/>
    <path d="M106 52c-14-10-18-10-28-10" fill="none" stroke="rgba(167,139,250,0.45)" stroke-width="6" stroke-linecap="round"/>
  </g>
</svg>

