<svg xmlns="http://www.w3.org/2000/svg" viewBox="0 0 128 128">
  <defs>
    <radialGradient id="bg" cx="30%" cy="20%" r="85%">
      <stop offset="0%" stop-color="#38bdf8"/>
      <stop offset="55%" stop-color="#075985"/>
      <stop offset="100%" stop-color="#0b1020"/>
    </radialGradient>
  </defs>
  <circle cx="64" cy="64" r="60" fill="url(#bg)"/>
  <circle cx="64" cy="64" r="60" fill="none" stroke="rgba(255,255,255,0.16)" stroke-width="2"/>

  <g transform="translate(0,2)">
    <path d="M34 52c0-18 14-32 30-32s30 14 30 32v26c0 18-14 32-30 32S34 96 34 78V52z" fill="#0b1220" stroke="rgba(255,255,255,0.18)" stroke-width="3"/>
    <circle cx="50" cy="66" r="12" fill="#e5e7eb"/>
    <circle cx="78" cy="66" r="12" fill="#e5e7eb"/>
    <circle cx="50" cy="66" r="5" fill="#111827"/>
    <circle cx="78" cy="66" r="5" fill="#111827"/>
    <path d="M64 74l-6 6h12z" fill="#fbbf24"/>
    <path d="M48 44c4-6 28-6 32 0" fill="none" stroke="rgba(56,189,248,0.5)" stroke-width="5" stroke-linecap="round"/>
  </g>
</svg>

