<svg xmlns="http://www.w3.org/2000/svg" viewBox="0 0 128 128">
  <defs>
    <radialGradient id="bg" cx="30%" cy="20%" r="85%">
      <stop offset="0%" stop-color="#f59e0b"/>
      <stop offset="55%" stop-color="#7c2d12"/>
      <stop offset="100%" stop-color="#0b1020"/>
    </radialGradient>
  </defs>
  <circle cx="64" cy="64" r="60" fill="url(#bg)"/>
  <circle cx="64" cy="64" r="60" fill="none" stroke="rgba(255,255,255,0.16)" stroke-width="2"/>

  <g transform="translate(0,2)">
    <path d="M64 20c18 16 30 34 34 56-18-10-50-10-68 0 4-22 16-40 34-56z" fill="#0b1220" stroke="rgba(255,255,255,0.22)" stroke-width="3" stroke-linejoin="round"/>
    <path d="M44 74c8-10 32-10 40 0" fill="none" stroke="rgba(255,255,255,0.18)" stroke-width="10" stroke-linecap="round"/>
    <circle cx="52" cy="78" r="4" fill="#e5e7eb"/>
    <circle cx="76" cy="78" r="4" fill="#e5e7eb"/>
    <path d="M52 94c6 6 18 6 24 0" fill="none" stroke="rgba(255,255,255,0.22)" stroke-width="4" stroke-linecap="round"/>
    <path d="M90 52l6-4" stroke="rgba(245,158,11,0.75)" stroke-width="4" stroke-linecap="round"/>
    <path d="M88 44l7 0" stroke="rgba(245,158,11,0.75)" stroke-width="4" stroke-linecap="round"/>
    <path d="M82 38l4-6" stroke="rgba(245,158,11,0.75)" stroke-width="4" stroke-linecap="round"/>
  </g>
</svg>

