<svg xmlns="http://www.w3.org/2000/svg" xmlns:xlink="http://www.w3.org/1999/xlink" width="500" zoomAndPan="magnify" viewBox="0 0 375 374.999991" height="500" preserveAspectRatio="xMidYMid meet" version="1.0"><defs><g/><clipPath id="563a2f4fee"><rect x="0" width="98" y="0" height="54"/></clipPath><clipPath id="a07b5b7958"><path d="M 60 114 L 167 114 L 167 246.886719 L 60 246.886719 Z M 60 114 " clip-rule="nonzero"/></clipPath></defs><rect x="-37.5" width="450" fill="#ffffff" y="-37.499999" height="449.999989" fill-opacity="1"/><rect x="-37.5" width="450" fill="#f3f5f9" y="-37.499999" height="449.999989" fill-opacity="1"/><g transform="matrix(1, 0, 0, 1, 161, 152)"><g clip-path="url(#563a2f4fee)"><g fill="#1800ad" fill-opacity="1"><g transform="translate(0.580389, 39.534757)"><g><path d="M 3.90625 0 L 3.90625 -30.296875 L 11.234375 -30.296875 L 19.28125 -8.75 L 27.328125 -30.296875 L 34.65625 -30.296875 L 34.65625 0 L 29.421875 0 L 29.421875 -22.671875 L 21.921875 -2.640625 L 16.640625 -2.640625 L 9.140625 -22.671875 L 9.140625 0 Z M 3.90625 0 "/></g></g></g><g fill="#1800ad" fill-opacity="1"><g transform="translate(39.138505, 39.534757)"><g><path d="M 0.25 0 L 12.390625 -30.296875 L 16.46875 -30.296875 L 28.546875 0 L 22.671875 0 L 20.328125 -6.578125 L 8.5625 -6.578125 L 6.203125 0 Z M 10.40625 -11.234375 L 18.484375 -11.234375 L 14.453125 -22.296875 Z M 10.40625 -11.234375 "/></g></g></g><g fill="#1800ad" fill-opacity="1"><g transform="translate(67.939144, 39.534757)"><g><path d="M 0.53125 0 L 10.6875 -15.15625 L 0.578125 -30.296875 L 7.078125 -30.296875 L 14.40625 -18.609375 L 21.75 -30.296875 L 28.25 -30.296875 L 18.140625 -15.15625 L 28.28125 0 L 21.796875 0 L 14.375 -11.515625 L 7.03125 0 Z M 0.53125 0 "/></g></g></g></g></g><g clip-path="url(#a07b5b7958)"><path fill="#1800ad" d="M 69.109375 188.648438 L 69.109375 115.222656 C 92.5625 114.832031 107.464844 111.882812 123.652344 137.824219 C 122.015625 136.675781 120.039062 135.765625 117.855469 135.039062 C 108.660156 131.980469 96.0625 132.15625 86.96875 132.527344 L 86.96875 173.167969 C 99.023438 164.742188 114.628906 161.074219 121.644531 144.859375 C 119.703125 154.128906 115.371094 159.242188 108.183594 165.519531 C 103.71875 169.417969 99.03125 172.90625 94.25 176.394531 C 87.542969 181.292969 80.660156 186.246094 75.25 192.605469 C 68.214844 200.871094 64.871094 210.171875 63.492188 220.851562 L 62.457031 228.835938 C 57.988281 212.492188 61.441406 198.515625 69.109375 188.648438 Z M 102.226562 114.664062 C 109.300781 114.992188 116.75 115.933594 123.4375 118.15625 C 127.953125 119.65625 132.101562 121.71875 135.589844 124.519531 C 139.414062 127.597656 142.425781 131.5 144.265625 136.433594 C 147.152344 144.164062 145.960938 152.675781 142.042969 160.957031 C 138.242188 169 131.734375 177.011719 124.078125 183.695312 C 105.285156 200.101562 73.046875 216.226562 69.375 246.710938 L 69.121094 238.023438 C 68.101562 203.34375 79.996094 194.660156 97.992188 181.523438 C 102.386719 178.316406 107.214844 174.789062 112.359375 170.296875 C 118.253906 165.152344 123.175781 159.167969 125.925781 153.351562 C 133.75 136.804688 114.554688 118.566406 102.226562 114.667969 Z M 91.097656 213.097656 C 88.96875 217.210938 87.574219 222.226562 87.074219 228.847656 L 130.546875 228.847656 C 131.355469 228.847656 131.96875 228.835938 132.398438 228.804688 C 137.917969 228.449219 141.921875 226.429688 144.472656 223.515625 C 153.921875 212.714844 144.308594 186.167969 129.699219 196.320312 C 121.621094 201.9375 113.277344 211.386719 108.875 223.320312 C 109.691406 203.851562 115.054688 201.058594 128.777344 189.074219 C 136.65625 182.199219 144.015625 173.507812 148.503906 164.011719 C 152.984375 154.535156 154.699219 143.949219 150.960938 133.933594 C 149.019531 128.722656 145.953125 124.242188 141.917969 120.542969 L 141.917969 120.539062 C 141.917969 120.539062 175.796875 138.382812 147.6875 178.808594 C 150.398438 180.71875 153.082031 182.957031 155.53125 185.59375 C 161.117188 191.609375 165.390625 199.480469 166.066406 209.925781 C 166.132812 210.925781 166.164062 211.75 166.164062 212.402344 C 166.164062 220.761719 163.402344 228.910156 157.867188 235.234375 C 152.332031 241.5625 144.199219 245.90625 133.515625 246.597656 C 132.375 246.671875 131.382812 246.707031 130.546875 246.707031 L 70.992188 246.707031 C 70.992188 246.707031 74.113281 227.824219 91.097656 213.097656 Z M 91.097656 213.097656 " fill-opacity="1" fill-rule="evenodd"/></g></svg>